<svg id="Layer_1" enable-background="new 0 0 512 512" height="512" viewBox="0 0 512 512" width="512" xmlns="http://www.w3.org/2000/svg"><g><g><path d="m156 256v228.686c0 6.248 5.065 11.314 11.314 11.314 3.001 0 5.878-1.192 8-3.314l92.686-92.686 92.686 92.686c2.122 2.122 5 3.314 8 3.314 6.248 0 11.314-5.065 11.314-11.314v-228.686z" fill="#463c4b"/></g><g><path d="m156 325.955c4.054 9.771 8.001 19.729 15.98 24.345 13.679 7.914 35.417-2.639 51.04 1.536 15.1 4.037 28.608 24.164 44.98 24.164s29.88-20.127 44.979-24.163c15.623-4.176 37.361 6.378 51.04-1.536 7.98-4.617 11.926-14.575 15.981-24.347v-69.954h-224z" fill="#32283c"/></g><g><path d="m414.857 223.357c3.532-13.212 21.143-25.032 21.143-39.357s-17.611-26.145-21.143-39.357c-3.654-13.67 5.581-32.691-1.344-44.66-7.024-12.141-28.18-13.61-38.033-23.463s-11.322-31.009-23.463-38.033c-3.467-2.006-7.528-2.651-11.876-2.652v-.004h-24v.004c-3.322 0-6.812.375-10.339.819-12.592-4.411-24.041-20.654-37.802-20.654h-24c-13.762 0-25.207 16.253-37.8 20.661-3.524-.443-7.02-.826-10.341-.826v-.004h-24v.004c-4.349 0-8.409.646-11.876 2.652-12.141 7.024-13.61 28.18-23.463 38.033s-31.009 11.322-38.033 23.463c-6.925 11.969 2.309 30.99-1.344 44.66-3.532 13.212-21.143 25.032-21.143 39.357s17.611 26.145 21.143 39.357c3.654 13.67-5.581 32.691 1.344 44.66 7.024 12.141 28.18 13.61 38.033 23.463s11.322 31.009 23.463 38.033c3.467 2.006 7.528 2.651 11.876 2.652v.004h24v-.004c3.32 0 6.825-.38 10.349-.823 12.594 4.408 24.029 20.658 37.792 20.658h24c13.761 0 25.21-16.243 37.802-20.654 3.527.444 7.017.819 10.339.819v.004h24v-.004c4.349 0 8.409-.646 11.876-2.652 12.141-7.024 13.61-28.18 23.463-38.033s31.009-11.322 38.033-23.463c6.925-11.969-2.309-30.99 1.344-44.66z" fill="#cd3232"/></g><g><path d="m412 184c0 14.325-17.611 26.145-21.143 39.357-3.654 13.67 5.581 32.692-1.344 44.66-7.024 12.141-28.18 13.61-38.033 23.463s-11.322 31.009-23.463 38.033c-11.969 6.925-30.99-2.31-44.66 1.344-13.212 3.532-25.032 21.143-39.357 21.143s-26.145-17.611-39.357-21.143c-13.67-3.654-32.692 5.581-44.66-1.344-12.141-7.024-13.61-28.18-23.463-38.033s-31.009-11.322-38.033-23.463c-6.925-11.969 2.31-30.99-1.344-44.66-3.532-13.212-21.143-25.032-21.143-39.357s17.611-26.145 21.143-39.357c3.654-13.67-5.581-32.692 1.344-44.66 7.024-12.141 28.18-13.61 38.033-23.463s11.322-31.009 23.463-38.033c11.969-6.925 30.99 2.31 44.66-1.344 13.212-3.532 25.032-21.143 39.357-21.143s26.145 17.611 39.357 21.143c13.67 3.654 32.692-5.581 44.66 1.344 12.141 7.024 13.61 28.18 23.463 38.033s31.009 11.322 38.033 23.463c6.925 11.969-2.31 30.99 1.344 44.66 3.532 13.212 21.143 25.032 21.143 39.357z" fill="#ff4646"/></g><g><circle cx="244" cy="184" fill="#463c4b" r="128"/></g><g><g><path d="m214.667 256h-32c-4.418 0-8-3.582-8-8v-96c0-4.418 3.582-8 8-8h32c4.418 0 8 3.582 8 8v96c0 4.418-3.582 8-8 8z" fill="#ff4646"/></g><path d="m302.667 152h-16v-40c0-8.837-7.163-16-16-16-8.837 0-16 7.163-16 16 0 5.122-2.035 10.035-5.657 13.657l-26.343 26.343v96h80c8.837 0 16-7.164 16-16v-64c0-8.836-7.164-16-16-16z" fill="#fbb993"/></g><g><circle cx="198.667" cy="232" fill="#e6e6eb" r="10.667"/></g></g></svg>