<svg height="512" viewBox="0 0 512 512" width="512" xmlns="http://www.w3.org/2000/svg"><path d="m424 176h-312v288h160v-48h96a64 64 0 0 0 64-64v-168a8 8 0 0 0 -8-8z" fill="#fab991"/><path d="m224 176h-136a8 8 0 0 0 -8 8v168a32 32 0 0 0 32 32h80a32 32 0 0 0 32-32v-80a48 48 0 0 0 48-48v-48z" fill="#353744"/><path d="m224 224a48 48 0 0 0 0 96z" fill="#f0915a"/><path d="m160 416h112a0 0 0 0 1 0 0v48a0 0 0 0 1 0 0h-160a0 0 0 0 1 0 0 48 48 0 0 1 48-48z" fill="#f0915a"/><path d="m360 240a48 48 0 0 1 48 48v8a24 24 0 0 1 -24 24 24 24 0 0 1 -24-24v-56a0 0 0 0 1 0 0z" fill="#f0915a"/><g fill="#353744"><circle cx="400" cy="224" r="16"/><circle cx="320" cy="224" r="16"/><path d="m336 344h64a0 0 0 0 1 0 0 24 24 0 0 1 -24 24h-16a24 24 0 0 1 -24-24 0 0 0 0 1 0 0z"/><rect height="32" rx="16" width="512" y="64"/></g><rect fill="#55525b" height="32" rx="16" width="272" y="64"/><path d="m80 96h352a0 0 0 0 1 0 0v88a8 8 0 0 1 -8 8h-336a8 8 0 0 1 -8-8v-88a0 0 0 0 1 0 0z" fill="#353744"/><path d="m80 112h192a0 0 0 0 1 0 0v80a0 0 0 0 1 0 0h-184a8 8 0 0 1 -8-8v-72a0 0 0 0 1 0 0z" fill="#55525b"/><path d="m256 48h208a16 16 0 0 1 16 16 0 0 0 0 1 0 0h-240a0 0 0 0 1 0 0 16 16 0 0 1 16-16z" fill="#fabe19"/><path d="m464 64h16v120h-16z" fill="#f5871e"/><path d="m464 184h16v8h-16z" fill="#d7e6f0"/><path d="m464 192h16a8 8 0 0 1 8 8v52a4 4 0 0 1 -4 4h-24a4 4 0 0 1 -4-4v-52a8 8 0 0 1 8-8z" fill="#fabe19"/><path d="m476 200h12a0 0 0 0 1 0 0v52a4 4 0 0 1 -4 4h-12a0 0 0 0 1 0 0v-52a4 4 0 0 1 4-4z" fill="#f5871e"/></svg>