<?xml version="1.0" encoding="utf-8"?>
<!-- Generator: Adobe Illustrator 22.1.0, SVG Export Plug-In . SVG Version: 6.00 Build 0)  -->
<svg xmlns="http://www.w3.org/2000/svg" xmlns:xlink="http://www.w3.org/1999/xlink" version="1.1" id="Layer_1" x="0px" y="0px" viewBox="0 0 512 512" style="enable-background:new 0 0 512 512;" xml:space="preserve" width="512" height="512">
<style type="text/css">
	.st0{fill:#FF624B;}
	.st1{fill:#FFC34C;}
	.st2{fill:#F9BB32;}
	.st3{fill:#DB9C2E;}
	.st4{fill:#FF4B34;}
	.st5{fill:#FF9079;}
	.st6{fill:#FCE575;}
	.st7{fill:#FFD551;}
	.st8{fill:#FFF4C1;}
	.st9{fill:#FFB74B;}
	.st10{fill:#EACF32;}
	.st11{fill:#99AF17;}
	.st12{fill:#CCC033;}
	.st13{fill:#FCDA4F;}
	.st14{fill:#FFA730;}
	.st15{fill:#FFEACF;}
	.st16{fill:#FFD59A;}
	.st17{fill:#FFDF74;}
	.st18{fill:#E58D23;}
	.st19{fill:#BF6C0D;}
	.st20{fill:#A56021;}
	.st21{fill:#8C4C17;}
	.st22{fill:#FFEA63;}
	.st23{fill:#FCF9DE;}
</style>
<g>
	<g>
		<path class="st6" d="M472.4,496.86H39.6c-15.261,0-25.347-15.863-18.873-29.683l63.828-136.243c3.43-7.322,10.787-12,18.873-12    h305.145c8.086,0,15.442,4.677,18.873,12l63.828,136.243C497.747,480.997,487.662,496.86,472.4,496.86z"/>
	</g>
	<g>
		<path class="st10" d="M276.851,496.86H472.4c15.261,0,25.347-15.863,18.873-29.683l-20.232-43.186l-181.745-0.013    c-8.977-0.001-16.11,7.543-15.607,16.506L276.851,496.86z"/>
	</g>
	<g>
		<path class="st10" d="M427.445,330.934c-3.43-7.322-10.787-12-18.873-12H171.003h-67.575h0c-8.086,0-15.442,4.677-18.873,12    L20.727,467.177c-6.474,13.82,3.611,29.683,18.873,29.683h106.166l22.584-101.517c1.591-7.15,7.933-12.237,15.258-12.237h268.279    L427.445,330.934z"/>
	</g>
	<g>
		<path class="st0" d="M256,15.14c-59.612,0-107.937,48.325-107.937,107.937c0,18.788,4.804,36.452,13.245,51.838l85.813,182.389    c3.535,7.513,14.223,7.513,17.758,0l85.813-182.389c8.441-15.386,13.245-33.05,13.245-51.838    C363.937,63.465,315.612,15.14,256,15.14z M256,181.952c-32.464,0-58.875-26.411-58.875-58.875S223.537,64.202,256,64.202    s58.874,26.411,58.874,58.875S288.464,181.952,256,181.952z"/>
	</g>
	<g>
		<g>
			<path class="st4" d="M105.819,462.042h-6c-3.313,0-6-2.686-6-6s2.687-6,6-6h6c3.313,0,6,2.686,6,6     S109.132,462.042,105.819,462.042z"/>
		</g>
		<g>
			<path class="st4" d="M184.041,462.042h-11.174c-3.313,0-6-2.686-6-6s2.687-6,6-6h11.174c3.313,0,6,2.686,6,6     S187.354,462.042,184.041,462.042z M144.93,462.042h-11.174c-3.313,0-6-2.686-6-6s2.687-6,6-6h11.174c3.313,0,6,2.686,6,6     S148.243,462.042,144.93,462.042z"/>
		</g>
		<g>
			<path class="st4" d="M217.977,462.042h-6c-3.313,0-6-2.686-6-6s2.687-6,6-6c0-3.314,2.687-6,6-6s6,2.686,6,6v6     C223.977,459.355,221.291,462.042,217.977,462.042z"/>
		</g>
		<g>
			<path class="st4" d="M217.977,440.906c-3.313,0-6-2.686-6-6v-6.054c0-3.314,2.687-6,6-6s6,2.686,6,6v6.054     C223.977,438.219,221.291,440.906,217.977,440.906z"/>
		</g>
		<g>
			<path class="st4" d="M217.977,419.716c-3.313,0-6-2.686-6-6v-6c0-3.314,2.687-6,6-6h6c3.313,0,6,2.686,6,6s-2.687,6-6,6     C223.977,417.03,221.291,419.716,217.977,419.716z"/>
		</g>
		<g>
			<path class="st4" d="M349.505,413.716H337.55c-3.313,0-6-2.686-6-6s2.687-6,6-6h11.955c3.313,0,6,2.686,6,6     S352.818,413.716,349.505,413.716z M307.662,413.716h-11.955c-3.313,0-6-2.686-6-6s2.687-6,6-6h11.955c3.313,0,6,2.686,6,6     S310.976,413.716,307.662,413.716z M265.819,413.716h-11.955c-3.313,0-6-2.686-6-6s2.687-6,6-6h11.955c3.313,0,6,2.686,6,6     S269.133,413.716,265.819,413.716z"/>
		</g>
		<g>
			<path class="st4" d="M385.393,413.716h-6c-3.313,0-6-2.686-6-6s2.687-6,6-6c0-3.314,2.687-6,6-6s6,2.686,6,6v6     C391.393,411.03,388.706,413.716,385.393,413.716z"/>
		</g>
		<g>
			<path class="st4" d="M385.393,389.881c-3.313,0-6-2.686-6-6v-7.134c0-3.314,2.687-6,6-6s6,2.686,6,6v7.134     C391.393,387.195,388.706,389.881,385.393,389.881z"/>
		</g>
		<g>
			<path class="st4" d="M385.393,364.912c-3.313,0-6-2.686-6-6v-6c0-3.314,2.687-6,6-6s6,2.686,6,6v6     C391.393,362.225,388.706,364.912,385.393,364.912z"/>
		</g>
	</g>
	<g>
		<circle class="st11" cx="385.393" cy="351.02" r="24.531"/>
	</g>
	<g>
		<circle class="st11" cx="99.819" cy="456.041" r="24.531"/>
	</g>
	<g>
		<path class="st12" d="M60.325,467.177l63.828-136.243c3.43-7.322,10.787-12,18.873-12h-39.598c-8.086,0-15.442,4.677-18.873,12    L20.727,467.177c-6.474,13.82,3.612,29.683,18.873,29.683h39.598C63.937,496.86,53.851,480.997,60.325,467.177z"/>
	</g>
	<g>
		<g>
			<path class="st4" d="M202.991,174.915c-8.441-15.386-13.245-33.05-13.245-51.838c0-52.481,37.458-96.207,87.096-105.919     c-6.744-1.319-13.711-2.018-20.841-2.018c-59.612,0-107.937,48.325-107.937,107.937c0,18.788,4.804,36.452,13.245,51.838     l85.813,182.389c3.535,7.513,14.223,7.513,17.758,0l11.962-25.425L202.991,174.915z"/>
		</g>
	</g>
	<g>
		<path class="st13" d="M475.618,470.413c-2.281,0-4.461-1.307-5.467-3.519l-40.38-88.861c-1.37-3.017-0.036-6.574,2.98-7.945    c3.017-1.371,6.574-0.036,7.945,2.98l40.38,88.861c1.37,3.017,0.036,6.574-2.98,7.945    C477.292,470.24,476.448,470.413,475.618,470.413z"/>
	</g>
	<g>
		<path class="st5" d="M274.754,301.409c-0.855,0-1.725-0.184-2.551-0.572c-2.998-1.411-4.285-4.985-2.874-7.983l42.489-90.31    c1.41-2.998,4.981-4.286,7.983-2.875c2.998,1.411,4.285,4.985,2.874,7.983l-42.489,90.31    C279.165,300.134,277.006,301.409,274.754,301.409z"/>
	</g>
	<g>
		<circle class="st12" cx="145.466" cy="352.912" r="15.631"/>
	</g>
	<g>
		<circle class="st4" cx="266.319" cy="231.141" r="15.631"/>
	</g>
</g>
</svg>
