<svg id="Icon_Set" enable-background="new 0 0 64 64" height="512" viewBox="0 0 64 64" width="512" xmlns="http://www.w3.org/2000/svg"><path d="m38 39.75v-6h-4v7c0 2.209 1.791 4 4 4h5v14h12v-4h2c1.105 0 2-.895 2-2v-8c0-2.209-1.791-4-4-4h-16c-.552 0-1-.448-1-1z" fill="#6c696f"/><path d="m55 59.25h-12c-.276 0-.5-.224-.5-.5v-13.5h-4.5c-2.481 0-4.5-2.019-4.5-4.5v-7c0-.276.224-.5.5-.5h4c.276 0 .5.224.5.5v6c0 .276.224.5.5.5h16c2.481 0 4.5 2.019 4.5 4.5v8c0 1.378-1.122 2.5-2.5 2.5h-1.5v3.5c0 .276-.224.5-.5.5zm-11.5-1h11v-3.5c0-.276.224-.5.5-.5h2c.827 0 1.5-.673 1.5-1.5v-8c0-1.93-1.57-3.5-3.5-3.5h-16c-.827 0-1.5-.673-1.5-1.5v-5.5h-3v6.5c0 1.93 1.57 3.5 3.5 3.5h5c.276 0 .5.224.5.5z" fill="#212a41"/><path d="m25 30v-4c0-3.314-2.686-6-6-6h-8c-3.314 0-6 2.686-6 6v6c0 1.105.895 2 2 2h2v3.75h12v-3.75h9v-4z" fill="#6c696f"/><path d="m21 38.25h-12c-.276 0-.5-.224-.5-.5v-3.25h-1.5c-1.378 0-2.5-1.122-2.5-2.5v-6c0-3.584 2.916-6.5 6.5-6.5h8c3.584 0 6.5 2.916 6.5 6.5v3.5h4.5c.276 0 .5.224.5.5v4c0 .276-.224.5-.5.5h-8.5v3.25c0 .276-.224.5-.5.5zm-11.5-1h11v-3.25c0-.276.224-.5.5-.5h8.5v-3h-4.5c-.276 0-.5-.224-.5-.5v-4c0-3.033-2.467-5.5-5.5-5.5h-8c-3.033 0-5.5 2.467-5.5 5.5v6c0 .827.673 1.5 1.5 1.5h2c.276 0 .5.224.5.5z" fill="#212a41"/><path d="m15 27-3-7h6z" fill="#e0e0e0"/><path d="m15 27.5c-.2 0-.381-.119-.459-.303l-3-7c-.066-.154-.05-.332.042-.472.093-.14.25-.225.417-.225h6c.168 0 .325.084.417.225s.108.318.042.472l-3 7c-.078.184-.259.303-.459.303zm-2.242-7 2.242 5.23 2.242-5.23z" fill="#212a41"/><path d="m16 20h-2c-2.209 0-4-1.791-4-4v-4c0-2.209 1.791-4 4-4h2c2.209 0 4 1.791 4 4v4c0 2.209-1.791 4-4 4z" fill="#e0c8a4"/><g fill="#212a41"><path d="m16 20.5h-2c-2.481 0-4.5-2.019-4.5-4.5v-4c0-2.481 2.019-4.5 4.5-4.5h2c2.481 0 4.5 2.019 4.5 4.5v4c0 2.481-2.019 4.5-4.5 4.5zm-2-12c-1.93 0-3.5 1.57-3.5 3.5v4c0 1.93 1.57 3.5 3.5 3.5h2c1.93 0 3.5-1.57 3.5-3.5v-4c0-1.93-1.57-3.5-3.5-3.5z"/><path d="m14 34.5h-5c-.276 0-.5-.224-.5-.5s.224-.5.5-.5h4.5v-3h-4.5c-.276 0-.5-.224-.5-.5v-4c0-.276.224-.5.5-.5s.5.224.5.5v3.5h4.5c.276 0 .5.224.5.5v4c0 .276-.224.5-.5.5z"/><path d="m21 34.5c-.276 0-.5-.224-.5-.5v-8c0-.276.224-.5.5-.5s.5.224.5.5v8c0 .276-.224.5-.5.5z"/><path d="m15 34.5c-.276 0-.5-.224-.5-.5v-7c0-.276.224-.5.5-.5s.5.224.5.5v7c0 .276-.224.5-.5.5z"/></g><path d="m14 8v5c0 1.105-.895 2-2 2h-2v-5c0-1.105.895-2 2-2z" fill="#db8e11"/><path d="m12 15.5h-2c-.276 0-.5-.224-.5-.5v-5c0-1.378 1.122-2.5 2.5-2.5h2c.276 0 .5.224.5.5v5c0 1.378-1.122 2.5-2.5 2.5zm-1.5-1h1.5c.827 0 1.5-.673 1.5-1.5v-4.5h-1.5c-.827 0-1.5.673-1.5 1.5z" fill="#212a41"/><path d="m21 7v3c0 1.105-.895 2-2 2h-7v-3c0-1.105.895-2 2-2z" fill="#f9ac2f"/><path d="m19 12.5h-7c-.276 0-.5-.224-.5-.5v-3c0-1.378 1.122-2.5 2.5-2.5h7c.276 0 .5.224.5.5v3c0 1.378-1.122 2.5-2.5 2.5zm-6.5-1h6.5c.827 0 1.5-.673 1.5-1.5v-2.5h-6.5c-.827 0-1.5.673-1.5 1.5z" fill="#212a41"/><path d="m16 34h-2v-4h2c.552 0 1 .448 1 1v2c0 .552-.448 1-1 1z" fill="#e0c8a4"/><path d="m16 34.5h-2c-.276 0-.5-.224-.5-.5v-4c0-.276.224-.5.5-.5h2c.827 0 1.5.673 1.5 1.5v2c0 .827-.673 1.5-1.5 1.5zm-1.5-1h1.5c.276 0 .5-.224.5-.5v-2c0-.276-.224-.5-.5-.5h-1.5z" fill="#212a41"/><path d="m32 34h-2v-4h2c.552 0 1 .448 1 1v2c0 .552-.448 1-1 1z" fill="#e0c8a4"/><path d="m32 34.5h-2c-.276 0-.5-.224-.5-.5v-4c0-.276.224-.5.5-.5h2c.827 0 1.5.673 1.5 1.5v2c0 .827-.673 1.5-1.5 1.5zm-1.5-1h1.5c.276 0 .5-.224.5-.5v-2c0-.276-.224-.5-.5-.5h-1.5z" fill="#212a41"/><path d="m15 27.5c-.106 0-.213-.034-.303-.102-.183-.139-.247-.384-.157-.595l3-7c.072-.169.231-.284.414-.301.191-.015.36.069.462.221l2 3c.144.216.099.506-.104.668l-5 4c-.091.072-.201.109-.312.109zm3.096-6.455-1.851 4.318 3.084-2.467z" fill="#212a41"/><path d="m15 27.5c-.111 0-.221-.037-.312-.109l-5-4c-.202-.162-.248-.452-.104-.668l2-3c.102-.152.28-.235.462-.221.183.017.341.132.414.301l3 7c.09.21.026.456-.157.595-.09.068-.197.102-.303.102zm-4.33-4.604 3.084 2.467-1.851-4.318z" fill="#212a41"/><path d="m26 37.75h-17v17.25h6v-11.25h8v11.25h6v-14.25c0-1.657-1.343-3-3-3z" fill="#6c696f"/><path d="m29 55.5h-6c-.276 0-.5-.224-.5-.5v-10.75h-7v10.75c0 .276-.224.5-.5.5h-6c-.276 0-.5-.224-.5-.5v-17.25c0-.276.224-.5.5-.5h17c1.93 0 3.5 1.57 3.5 3.5v14.25c0 .276-.224.5-.5.5zm-5.5-1h5v-13.75c0-1.378-1.122-2.5-2.5-2.5h-16.5v16.25h5v-10.75c0-.276.224-.5.5-.5h8c.276 0 .5.224.5.5z" fill="#212a41"/><path d="m49 47.75 3-7h-6z" fill="#e0e0e0"/><path d="m49 48.25c-.2 0-.381-.119-.459-.303l-3-7c-.066-.154-.05-.332.042-.472.093-.14.25-.225.417-.225h6c.168 0 .325.084.417.225s.108.318.042.472l-3 7c-.078.184-.259.303-.459.303zm-2.242-7 2.242 5.23 2.242-5.23z" fill="#212a41"/><path d="m48 40.75h2c2.209 0 4-1.791 4-4v-4c0-2.209-1.791-4-4-4h-2c-2.209 0-4 1.791-4 4v4c0 2.209 1.791 4 4 4z" fill="#e0c8a4"/><path d="m50 41.25h-2c-2.481 0-4.5-2.019-4.5-4.5v-4c0-2.481 2.019-4.5 4.5-4.5h2c2.481 0 4.5 2.019 4.5 4.5v4c0 2.481-2.019 4.5-4.5 4.5zm-2-12c-1.93 0-3.5 1.57-3.5 3.5v4c0 1.93 1.57 3.5 3.5 3.5h2c1.93 0 3.5-1.57 3.5-3.5v-4c0-1.93-1.57-3.5-3.5-3.5z" fill="#212a41"/><path d="m55 55.25h-5c-.276 0-.5-.224-.5-.5v-4c0-.276.224-.5.5-.5h4.5v-3.5c0-.276.224-.5.5-.5s.5.224.5.5v4c0 .276-.224.5-.5.5h-4.5v3h4.5c.276 0 .5.224.5.5s-.224.5-.5.5z" fill="#212a41"/><path d="m43 55.25c-.276 0-.5-.224-.5-.5v-8c0-.276.224-.5.5-.5s.5.224.5.5v8c0 .276-.224.5-.5.5z" fill="#212a41"/><path d="m49 55.25c-.276 0-.5-.224-.5-.5v-7c0-.276.224-.5.5-.5s.5.224.5.5v7c0 .276-.224.5-.5.5z" fill="#212a41"/><path d="m50 28.75v5c0 1.105.895 2 2 2h2v-5c0-1.105-.895-2-2-2z" fill="#db8e11"/><path d="m54 36.25h-2c-1.378 0-2.5-1.122-2.5-2.5v-5c0-.276.224-.5.5-.5h2c1.378 0 2.5 1.122 2.5 2.5v5c0 .276-.224.5-.5.5zm-3.5-7v4.5c0 .827.673 1.5 1.5 1.5h1.5v-4.5c0-.827-.673-1.5-1.5-1.5z" fill="#212a41"/><path d="m43 27.75v3c0 1.105.895 2 2 2h7v-3c0-1.105-.895-2-2-2z" fill="#f9ac2f"/><path d="m52 33.25h-7c-1.378 0-2.5-1.122-2.5-2.5v-3c0-.276.224-.5.5-.5h7c1.378 0 2.5 1.122 2.5 2.5v3c0 .276-.224.5-.5.5zm-8.5-5v2.5c0 .827.673 1.5 1.5 1.5h6.5v-2.5c0-.827-.673-1.5-1.5-1.5z" fill="#212a41"/><path d="m48 54.75h2v-4h-2c-.552 0-1 .448-1 1v2c0 .552.448 1 1 1z" fill="#e0c8a4"/><path d="m50 55.25h-2c-.827 0-1.5-.673-1.5-1.5v-2c0-.827.673-1.5 1.5-1.5h2c.276 0 .5.224.5.5v4c0 .276-.224.5-.5.5zm-2-4c-.276 0-.5.224-.5.5v2c0 .276.224.5.5.5h1.5v-3z" fill="#212a41"/><path d="m34 31.75v2h4v-2c0-.552-.448-1-1-1h-2c-.552 0-1 .448-1 1z" fill="#e0c8a4"/><path d="m38 34.25h-4c-.276 0-.5-.224-.5-.5v-2c0-.827.673-1.5 1.5-1.5h2c.827 0 1.5.673 1.5 1.5v2c0 .276-.224.5-.5.5zm-3.5-1h3v-1.5c0-.276-.224-.5-.5-.5h-2c-.276 0-.5.224-.5.5z" fill="#212a41"/><path d="m49 48.25c-.111 0-.221-.037-.312-.109l-5-4c-.202-.162-.248-.452-.104-.668l2-3c.102-.152.278-.234.462-.221.183.017.341.132.414.301l3 7c.09.21.026.456-.157.595-.09.068-.197.102-.303.102zm-4.33-4.604 3.084 2.467-1.851-4.318z" fill="#212a41"/><path d="m49 48.25c-.106 0-.213-.034-.303-.102-.183-.139-.247-.384-.157-.595l3-7c.072-.169.231-.284.414-.301.189-.014.36.068.462.221l2 3c.144.216.099.506-.104.668l-5 4c-.091.072-.201.109-.312.109zm3.096-6.455-1.851 4.318 3.084-2.467z" fill="#212a41"/><path d="m46 5h-16c-1.105 0-2 .895-2 2v12c0 1.105.895 2 2 2h4v5h4v-5h8c1.105 0 2-.895 2-2v-12c0-1.105-.895-2-2-2z" fill="#99a2b9"/><path d="m38 26.5h-4c-.276 0-.5-.224-.5-.5v-4.5h-3.5c-1.378 0-2.5-1.122-2.5-2.5v-12c0-1.378 1.122-2.5 2.5-2.5h16c1.378 0 2.5 1.122 2.5 2.5v12c0 1.378-1.122 2.5-2.5 2.5h-7.5v4.5c0 .276-.224.5-.5.5zm-3.5-1h3v-4.5c0-.276.224-.5.5-.5h8c.827 0 1.5-.673 1.5-1.5v-12c0-.827-.673-1.5-1.5-1.5h-16c-.827 0-1.5.673-1.5 1.5v12c0 .827.673 1.5 1.5 1.5h4c.276 0 .5.224.5.5z" fill="#212a41"/><path d="m50 5h-16c-1.105 0-2 .895-2 2v12c0 1.105.895 2 2 2h4v5l6-5h6c1.105 0 2-.895 2-2v-12c0-1.105-.895-2-2-2z" fill="#b7c0d7"/><path d="m38 26.5c-.072 0-.145-.016-.212-.047-.176-.082-.288-.259-.288-.453v-4.5h-3.5c-1.378 0-2.5-1.122-2.5-2.5v-12c0-1.378 1.122-2.5 2.5-2.5h16c1.378 0 2.5 1.122 2.5 2.5v12c0 1.378-1.122 2.5-2.5 2.5h-5.819l-5.861 4.884c-.091.076-.205.116-.32.116zm-4-21c-.827 0-1.5.673-1.5 1.5v12c0 .827.673 1.5 1.5 1.5h4c.276 0 .5.224.5.5v3.933l5.18-4.317c.09-.075.203-.116.32-.116h6c.827 0 1.5-.673 1.5-1.5v-12c0-.827-.673-1.5-1.5-1.5z" fill="#212a41"/><path d="m34 19.5c-.276 0-.5-.224-.5-.5v-12c0-.276.224-.5.5-.5s.5.224.5.5v12c0 .276-.224.5-.5.5z" fill="#d5def5"/><path d="m50 19.5c-.276 0-.5-.224-.5-.5v-12c0-.276.224-.5.5-.5s.5.224.5.5v12c0 .276-.224.5-.5.5z" fill="#99a2b9"/><path d="m46 15h-8l4-6z" fill="#d32e5e"/><path d="m46 15.5h-8c-.185 0-.354-.102-.441-.264s-.077-.36.025-.513l4-6c.186-.278.646-.278.832 0l4 6c.102.153.112.351.025.513s-.256.264-.441.264zm-7.066-1h6.132l-3.066-4.599z" fill="#212a41"/><path d="m30 55h-7v4h9v-2c0-1.105-.895-2-2-2z" fill="#6c696f"/><path d="m32 59.5h-9c-.276 0-.5-.224-.5-.5v-4c0-.276.224-.5.5-.5h7c1.378 0 2.5 1.122 2.5 2.5v2c0 .276-.224.5-.5.5zm-8.5-1h8v-1.5c0-.827-.673-1.5-1.5-1.5h-6.5z" fill="#212a41"/><path d="m16 55h-7v4h9v-2c0-1.105-.895-2-2-2z" fill="#6c696f"/><path d="m18 59.5h-9c-.276 0-.5-.224-.5-.5v-4c0-.276.224-.5.5-.5h7c1.378 0 2.5 1.122 2.5 2.5v2c0 .276-.224.5-.5.5zm-8.5-1h8v-1.5c0-.827-.673-1.5-1.5-1.5h-6.5z" fill="#212a41"/><path d="m15 44.25c-.276 0-.5-.224-.5-.5v-2c0-.276.224-.5.5-.5s.5.224.5.5v2c0 .276-.224.5-.5.5z" fill="#212a41"/><path d="m11 53.5c-.276 0-.5-.224-.5-.5v-13.25c0-.276.224-.5.5-.5s.5.224.5.5v13.25c0 .276-.224.5-.5.5z" fill="#8a878d"/></svg>