<svg id="Capa_1" enable-background="new 0 0 512 512" height="512" viewBox="0 0 512 512" width="512" xmlns="http://www.w3.org/2000/svg"><circle cx="256" cy="256" fill="#22d7ff" r="256"/><path d="m512 256c0 87.11-43.52 164.07-110 210.31-41.41 28.8-91.73 45.69-146 45.69s-104.59-16.89-146-45.69c-66.48-46.24-110-123.2-110-210.31 0-46.22 12.25-89.57 33.68-127 44.12 77.07 127.16 129 222.32 129s178.21-51.93 222.32-129c21.43 37.43 33.68 80.78 33.68 127z" fill="#24c6ff"/><path d="m400.08 467.63c-41.04 28-90.64 44.37-144.08 44.37s-103.04-16.37-144.08-44.37c.03-22.69 5.29-44.14 14.66-63.22 12.23-24.92 31.45-45.79 55.1-60.04.93-.58 1.87-1.13 2.82-1.67 7.54-4.33 15.52-7.98 23.85-10.9 3.87-1.36 7.81-2.55 11.82-3.58 4.96-1.27 10.02-2.29 15.16-3.02 6.75-.98 13.65-1.48 20.67-1.48 12.38 0 24.4 1.56 35.87 4.51 4.01 1.03 7.95 2.22 11.81 3.58 9.37 3.28 18.31 7.51 26.68 12.57 23.63 14.26 42.83 35.12 55.06 60.03 9.37 19.08 14.63 40.53 14.66 63.22z" fill="#374c81"/><path d="m400.08 467.63c-41.04 28-90.64 44.37-144.08 44.37v-188.28c12.38 0 24.4 1.56 35.87 4.51 4.01 1.03 7.95 2.22 11.81 3.58 56.09 19.65 96.33 73.04 96.4 135.82z" fill="#234177"/><path d="m385.42 404.41c-42.51 10.43-85.96 15.65-129.42 15.65s-86.91-5.22-129.42-15.65c6.12-12.46 13.98-23.91 23.27-34.02s20.01-18.89 31.83-26.02c.93-.58 1.87-1.13 2.82-1.67 7.54-4.33 15.52-7.98 23.85-10.9 3.87-1.36 7.81-2.55 11.82-3.58 4.96-1.27 10.02-2.29 15.16-3.02 6.75-.98 13.65-1.48 20.67-1.48 12.38 0 24.4 1.56 35.87 4.51 4.01 1.03 7.95 2.22 11.81 3.58 9.37 3.28 18.31 7.51 26.68 12.57 23.63 14.26 42.83 35.12 55.06 60.03z" fill="#ffe400"/><path d="m385.42 404.41c-42.51 10.43-85.96 15.65-129.42 15.65v-96.34c12.38 0 24.4 1.56 35.87 4.51 4.01 1.03 7.95 2.22 11.81 3.58 9.37 3.28 18.31 7.51 26.68 12.57 23.63 14.26 42.83 35.12 55.06 60.03z" fill="#ffc300"/><path d="m303.68 331.81c-3.86-1.36-7.8-2.55-11.81-3.58-11.47-2.95-23.49-4.51-35.87-4.51-7.02 0-13.92.5-20.67 1.48-5.14.73-10.2 1.75-15.16 3.02-4.01 1.03-7.95 2.22-11.82 3.58-8.33 2.92-16.31 6.57-23.85 10.9-.95.54-1.89 1.09-2.82 1.67 20.98 14.97 46.64 23.79 74.32 23.8h.04c27.68-.01 53.34-8.82 74.32-23.79-8.37-5.06-17.31-9.29-26.68-12.57z" fill="#ffc300"/><path d="m330.36 344.38c-20.98 14.97-46.64 23.78-74.32 23.79h-.04v-44.45c12.38 0 24.4 1.56 35.87 4.51 4.01 1.03 7.95 2.22 11.81 3.58 9.37 3.28 18.31 7.51 26.68 12.57z" fill="#ff9f00"/><path d="m145.993 190.503c-13.53 0-24.499 10.968-24.499 24.499 0 24.644 19.978 44.623 44.623 44.623v-69.175z" fill="#ffa87a"/><path d="m366.007 190.503c13.53 0 24.499 10.968 24.499 24.499 0 24.644-19.978 44.623-44.623 44.623v-69.175z" fill="#e3835a"/><path d="m351.78 203.81v36.1c0 52.87-42.86 95.75-95.75 95.76-.01 0-.01 0-.02 0-52.87 0-95.75-42.89-95.75-95.76v-36.1c0-5.45.44-10.78 1.34-15.96 6.26-37.31 34.08-67.28 70.21-76.72 7.72-2.01 15.85-3.08 24.2-3.08h.02c8.37 0 16.49 1.07 24.23 3.1 36.11 9.42 63.92 39.39 70.17 76.7.89 5.18 1.35 10.51 1.35 15.96z" fill="#ffc0a4"/><path d="m256.03 108.05-95.77 97.13v-1.37c0-5.45.44-10.78 1.34-15.96 6.26-37.31 34.08-67.28 70.21-76.72 7.72-2.01 15.85-3.08 24.2-3.08z" fill="#323b5a"/><path d="m351.776 203.804v36.102c0 52.866-42.857 95.752-95.742 95.761v-227.614c8.373 0 16.49 1.069 24.219 3.094 36.121 9.413 63.926 39.394 70.179 76.698.89 5.184 1.344 10.52 1.344 15.959z" fill="#ffa87a"/><g fill="#323b5a"><path d="m256.01 108.05 95.77 97.13v-1.37c0-5.45-.44-10.78-1.34-15.96-6.26-37.31-34.08-67.28-70.21-76.72-7.72-2.01-15.85-3.08-24.2-3.08z"/><ellipse cx="225.961" cy="235.214" rx="11.789" ry="11.789" transform="matrix(.924 -.383 .383 .924 -72.812 104.376)"/><ellipse cx="286.039" cy="235.214" rx="11.789" ry="11.789" transform="matrix(.924 -.383 .383 .924 -68.239 127.367)"/><path d="m284.199 283.212c8.333 0 12.77 9.998 7.039 16.047-3.591 3.791-7.787 7.001-12.432 9.476-6.794 3.64-14.558 5.696-22.805 5.696-8.248 0-16.011-2.056-22.805-5.696-4.645-2.475-8.841-5.685-12.432-9.476-5.731-6.049-1.294-16.047 7.039-16.047z"/></g><path d="m278.805 308.736c-6.794 3.64-14.558 5.696-22.805 5.696-8.248 0-16.011-2.056-22.805-5.696 5.672-6.144 13.79-9.997 22.805-9.997s17.134 3.852 22.805 9.997z" fill="#e32644"/><path d="m256 263.275c-4.018 0-7.275-3.257-7.275-7.275v-31.235c0-4.018 3.257-7.275 7.275-7.275 4.019 0 7.276 3.257 7.276 7.275v31.235c0 4.018-3.258 7.275-7.276 7.275z" fill="#e3835a"/><path d="m242.545 211.615c-2.732-6.46-9.129-10.992-16.584-10.992s-13.851 4.532-16.584 10.992z" fill="#234177"/><path d="m302.622 211.615c-2.732-6.46-9.129-10.992-16.584-10.992s-13.851 4.532-16.584 10.992z" fill="#323b5a"/><path d="m421.3 90.28-47.84 34.21v66.01h-234.92v-66.01l-47.84-34.21z" fill="#374c81"/><path d="m421.3 90.28-47.84 34.21v66.01h-117.46v-100.22z" fill="#234177"/><path d="m364.23 46.13c-.05-.06.1-.01.1-.01z" fill="#00b3fe"/><path d="m421.3 90.28-47.84 34.21h-234.92l-47.84-34.21z" fill="#234177"/><path d="m377.52 265.82v5.93c0 10.39-3.68 19.93-9.81 27.38-6.15-7.45-9.83-16.99-9.83-27.38v-5.93c0-.57.04-1.12.14-1.67 2.67-15.48 3.01-31.29 3.01-47v-126.87h13.34v126.87c0 15.71.34 31.52 3.01 47 .1.55.14 1.1.14 1.67z" fill="#ffe400"/><path d="m377.52 265.82v5.93c0 10.39-3.68 19.93-9.81 27.38v-208.85h6.66v126.87c0 15.71.34 31.52 3.01 47 .1.55.14 1.1.14 1.67z" fill="#ffe400"/><path d="m421.3 90.28-47.84 34.21h-117.46v-34.21z" fill="#16325b"/></svg>