<svg id="Layer_1" enable-background="new 0 0 256 256" height="512" viewBox="0 0 256 256" width="512" xmlns="http://www.w3.org/2000/svg"><path d="m159.503 197.357c-8.784 0-8.49-.004-8.49-.004l-.003.004h-55.492c-14.66 0-26.544 11.884-26.544 26.544v24.099h117.072c0-8.986 0-15.118 0-24.099 0-14.66-11.884-26.544-26.543-26.544z" fill="#e0ebfc"/><path d="m186.046 250h-117.072c-1.104 0-2-.896-2-2v-24.099c0-15.739 12.805-28.544 28.544-28.544h3.736c.689 0 1.331.355 1.696.939l13.549 21.673 11.282-19.264c.358-.612 1.016-.989 1.726-.989s1.367.377 1.726.989l11.282 19.264 13.549-21.673c.366-.584 1.007-.939 1.696-.939h3.743c15.738 0 28.543 12.805 28.543 28.544v24.099c0 1.104-.896 2-2 2zm-115.072-4h113.072v-22.099c0-13.533-11.01-24.544-24.543-24.544h-2.635l-14.713 23.535c-.366.585-1.008.939-1.696.939-.01 0-.02 0-.029 0-.699-.011-1.343-.386-1.696-.989l-11.227-19.169-11.227 19.169c-.354.604-.997.979-1.697.989-.725-.034-1.354-.347-1.725-.939l-14.714-23.535h-2.627c-13.534 0-24.544 11.011-24.544 24.544v22.099z" fill="#3762cc"/><path d="m100.867 192.249-1.613 5.108 15.301 24.475 12.955-22.121-23.214-9.1c-1.401-.55-2.976.202-3.429 1.638z" fill="#e0ebfc"/><path d="m154.147 192.249 1.613 5.108-15.301 24.475-12.955-22.121 23.214-9.1c1.401-.55 2.975.202 3.429 1.638z" fill="#e0ebfc"/><path d="m114.555 223.832c-.689 0-1.33-.354-1.696-.939l-15.301-24.475c-.311-.497-.388-1.104-.211-1.663l1.613-5.108c.382-1.21 1.259-2.218 2.404-2.766 1.146-.547 2.481-.597 3.662-.133l23.215 9.101c.544.214.968.654 1.16 1.207.191.553.131 1.161-.164 1.666l-12.956 22.121c-.354.604-.997.979-1.697.989-.01 0-.02 0-.029 0zm-13.116-26.752 13.06 20.89 10.103-17.251-21.036-8.246c-.209-.081-.39-.024-.479.018-.088.042-.246.145-.314.361z" fill="#3762cc"/><path d="m140.459 223.832c-.01 0-.02 0-.029 0-.699-.011-1.343-.386-1.696-.989l-12.955-22.121c-.296-.505-.355-1.113-.164-1.666s.615-.993 1.16-1.207l23.214-9.101c1.181-.464 2.515-.415 3.662.133 1.146.548 2.021 1.556 2.403 2.767l1.613 5.107c.176.559.099 1.166-.211 1.663l-15.301 24.475c-.366.585-1.008.939-1.696.939zm-10.047-23.113 10.103 17.251 13.06-20.89-1.335-4.229s0 0 0-.001c-.068-.216-.226-.318-.313-.36-.089-.042-.266-.099-.479-.018z" fill="#3762cc"/><path d="m127.504 197.357v.01l.012-.01z" fill="#4671c6"/><path d="m136.819 250h-18.589c-.566 0-1.106-.24-1.485-.661l-40.291-44.689c-.911-1.01-1.245-2.396-.894-3.71s1.332-2.35 2.624-2.771l16.912-5.514c1.747-.57 3.653.119 4.63 1.68l27.798 44.432 27.798-44.43c.977-1.562 2.882-2.251 4.632-1.682l16.91 5.514c1.293.422 2.274 1.459 2.625 2.772s.016 2.7-.895 3.71l-40.291 44.688c-.377.421-.917.661-1.484.661zm-17.699-4h16.81l39.695-44.027-16.911-5.515-28.462 45.491c-.593.946-1.611 1.51-2.726 1.51-.002 0-.005 0-.008 0-1.109 0-2.127-.563-2.719-1.508 0-.001 0-.001 0-.002l-28.462-45.492-16.911 5.515z" fill="#3762cc"/><path d="m140.459 223.832c-.01 0-.02 0-.029 0-.699-.011-1.343-.386-1.696-.989l-11.227-19.169-11.227 19.169c-.354.604-.997.979-1.697.989-.725-.034-1.354-.347-1.725-.939l-15.301-24.475c-.311-.497-.388-1.104-.211-1.663l1.613-5.108c.382-1.211 1.259-2.22 2.405-2.767 1.145-.548 2.48-.595 3.663-.132l22.48 8.813 22.48-8.813c1.182-.463 2.517-.416 3.662.132 1.146.548 2.022 1.557 2.404 2.768l1.613 5.107c.176.559.099 1.166-.211 1.663l-15.301 24.475c-.365.585-1.007.939-1.695.939zm-39.021-26.752 13.061 20.89 10.103-17.25-21.036-8.247c-.211-.084-.391-.025-.478.017-.088.042-.246.146-.314.362zm28.974 3.64 10.103 17.25 13.06-20.89-1.335-4.229c-.068-.218-.226-.32-.313-.362-.089-.042-.266-.101-.478-.017z" fill="#3762cc"/><path d="m104.297 190.611 23.21 9.099 23.21-9.099c.131-.052.264-.08.397-.109v-4.21c-7.053 3.671-15.077 5.756-23.598 5.756-8.531 0-16.565-2.09-23.624-5.769v4.222c.136.028.271.057.405.11z" fill="#f9cfcf"/><path d="m127.507 201.71c-.248 0-.495-.046-.73-.138l-23.294-9.114c-.927-.194-1.59-1.012-1.59-1.958v-4.223c0-.699.365-1.348.963-1.71.598-.363 1.342-.387 1.961-.063 6.957 3.626 14.806 5.543 22.7 5.543 7.884 0 15.725-1.912 22.674-5.53.62-.321 1.365-.299 1.961.064.598.362.963 1.011.963 1.71v4.21c0 .938-.652 1.751-1.569 1.953l-.131.03-23.177 9.088c-.236.092-.484.138-.731.138zm-13.245-9.341 13.245 5.192 13.208-5.178c-8.618 2.2-17.838 2.196-26.453-.014zm-10.665.114h.01z" fill="#3762cc"/><path d="m178.39 122.481c-9.158-6.593-17.834-11.359-20.259-24.785-10.311 9.042-27.747 15.09-39.462 16.576 0 0-4.559.6-6.882.799-15.411 1.322-26.581-.979-34.605-4.519-.336 2.342-.521 4.732-.521 7.166v4.763c-.108-.002-.213-.016-.322-.016-8.57 0-15.518 6.885-15.518 15.378s6.948 15.378 15.518 15.378c.563 0 1.118-.033 1.665-.091 5.249 22.3 25.42 38.917 49.521 38.917s44.273-16.617 49.521-38.917c.547.058 1.102.091 1.665.091 8.57 0 15.518-6.885 15.518-15.378.001-8.612-7.129-15.546-15.839-15.362z" fill="#f9cfcf"/><g fill="#3762cc"><path d="m127.536 168.528c-3.557 0-6.868-1.281-9.085-3.516-1.683-1.696-2.609-3.837-2.609-6.026 0-1.104.896-2 2-2s2 .896 2 2c0 1.144.501 2.254 1.449 3.21 1.449 1.46 3.784 2.332 6.246 2.332 2.477 0 4.74-.851 6.21-2.332.949-.956 1.45-2.066 1.45-3.21 0-1.104.896-2 2-2s2 .896 2 2c0 2.19-.927 4.331-2.611 6.027-2.216 2.234-5.514 3.515-9.05 3.515z"/><path d="m102.363 150.154c-3.386 0-6.141-2.754-6.141-6.14v-10.234c0-3.386 2.755-6.14 6.141-6.14 3.385 0 6.14 2.755 6.14 6.14v10.234c0 3.386-2.755 6.14-6.14 6.14z"/><path d="m152.675 150.154c-3.386 0-6.141-2.754-6.141-6.14v-10.234c0-3.386 2.755-6.14 6.141-6.14 3.385 0 6.14 2.755 6.14 6.14v10.234c0 3.386-2.755 6.14-6.14 6.14z"/></g><path d="m160.037 69.123c-14.1-10.466-28.785-12.611-42.468-10.452-29.334 1.42-51.425 25.46-57.061 32.198-.272.269-1.256 1.385-1.405 1.743-.341.817-.312 1.743.135 2.544 3.321 5.955 16.124 23.041 52.547 19.916 2.324-.199 6.882-.799 6.882-.799 17.639-2.237 48.268-14.808 47.978-32.388-.081-4.981-2.46-9.684-6.608-12.762z" fill="#4671c6"/><path d="m103.331 117.446c-31.34 0-42.896-16.042-45.838-21.317-.736-1.319-.822-2.882-.235-4.288.319-.766 1.442-1.974 1.758-2.306 6.204-7.403 28.526-31.357 58.349-32.856 16.044-2.506 30.8 1.142 43.865 10.838h-.001c4.619 3.428 7.323 8.652 7.418 14.335.322 19.572-32.773 32.255-49.727 34.405-.179.023-4.621.606-6.961.808-3.031.26-5.905.381-8.628.381zm-42.412-23.981c-.054.171-.089.437.067.716 2.902 5.204 15.134 21.945 50.629 18.898 2.252-.193 6.747-.783 6.792-.79 16.746-2.124 46.508-14.088 46.239-30.371-.073-4.43-2.188-8.508-5.801-11.188h-.001c-12.198-9.056-25.981-12.446-40.964-10.083-.071.011-.143.019-.215.022-28.321 1.37-49.735 24.443-55.624 31.482-.04.047-.082.093-.125.136-.21.211-.798.893-.997 1.178zm.031-.084c-.001 0-.001.001 0 0-.001.001-.001 0 0 0z" fill="#3762cc"/><path d="m177.435 79.59c-3.803-4.957-9.109-2.835-11.505-2.109.432 1.42.691 2.895.716 4.404.097 5.904-3.302 11.24-8.515 15.812 2.432 13.467 11.26 18.306 20.259 24.785 2.845-.064 5.448.614 7.742 1.854l1.079-7.914c1.784-13.091-1.736-26.35-9.776-36.832z" fill="#4671c6"/><path d="m186.132 126.335c-.327 0-.654-.08-.951-.24-2.081-1.126-4.339-1.648-6.746-1.614-.437.021-.861-.122-1.214-.376-.928-.668-1.854-1.319-2.771-1.964-8.208-5.766-15.961-11.212-18.286-24.089-.125-.69.121-1.396.649-1.859 5.277-4.628 7.913-9.431 7.834-14.274-.021-1.25-.233-2.548-.631-3.856-.154-.508-.1-1.056.15-1.523.25-.469.676-.818 1.184-.972l.498-.155c2.626-.829 8.773-2.772 13.174 2.961 8.308 10.829 12.015 24.796 10.17 38.319l-1.078 7.913c-.088.651-.49 1.217-1.076 1.514-.285.143-.596.215-.906.215zm-7.103-5.856c1.896.026 3.728.348 5.479.958l.721-5.286c1.701-12.474-1.718-25.356-9.381-35.344-2.157-2.813-4.766-2.7-7.521-1.96.195 1.011.303 2.015.319 3.004.095 5.784-2.708 11.354-8.334 16.57 2.263 10.49 8.849 15.116 16.436 20.446.756.531 1.518 1.067 2.281 1.612z" fill="#3762cc"/><path d="m66.082 103.507c-.543 4.253-.551 8.591.039 12.914l1.215 8.912c2.541-1.799 5.643-2.868 9.003-2.868.109 0 .214.014.322.016v-4.763c0-2.433.192-4.821.529-7.162-4.723-2.082-8.354-4.589-11.108-7.049z" fill="#4671c6"/><path d="m67.335 127.333c-.27 0-.541-.055-.797-.165-.641-.279-1.09-.872-1.185-1.564l-1.215-8.912c-.602-4.415-.615-8.936-.041-13.438.094-.737.588-1.36 1.284-1.621.697-.26 1.479-.111 2.032.383 3.002 2.681 6.562 4.938 10.583 6.711.821.362 1.3 1.228 1.172 2.115-.337 2.341-.508 4.653-.508 6.876v4.764c0 .54-.218 1.057-.605 1.434-.387.376-.902.593-1.449.565-.078-.002-.154-.007-.231-.012-.005-.001-.011-.001-.017-.001-2.853 0-5.56.865-7.867 2.498-.344.243-.748.367-1.156.367zm.404-19.912c-.149 2.934-.028 5.857.363 8.73l.813 5.958c1.81-.847 3.747-1.375 5.746-1.565v-2.826c0-1.938.119-3.937.355-5.959-2.62-1.252-5.054-2.703-7.277-4.338z" fill="#3762cc"/><path d="m218.718 118.82h-13.335c-.849 0-1.538-.688-1.538-1.538v-13.431c0-4.523 3.667-8.19 8.19-8.19h.031c4.523 0 8.19 3.667 8.19 8.19v13.431c0 .849-.689 1.538-1.538 1.538z" fill="#6bdddd"/><path d="m212.035 95.662h.031c1.455 0 2.819.383 4.003 1.049v-50.423c0-2.224-1.799-4.027-4.018-4.027s-4.018 1.803-4.018 4.027v50.423c1.184-.666 2.547-1.049 4.002-1.049z" fill="#6bdddd"/><path d="m218.718 120.819h-13.334c-1.951 0-3.538-1.587-3.538-3.537v-13.431c0-5.618 4.571-10.189 10.189-10.189 5.649 0 10.221 4.571 10.221 10.189v13.431c0 1.95-1.587 3.537-3.538 3.537zm-12.872-4h12.41v-12.968c0-3.413-2.776-6.189-6.189-6.189-3.444 0-6.221 2.776-6.221 6.189z" fill="#3762cc"/><path d="m216.069 98.711c-.337 0-.675-.085-.979-.256-.924-.519-1.969-.793-3.023-.793h-.031c-1.055 0-2.1.274-3.023.793-.621.348-1.377.339-1.99-.019-.612-.358-.989-1.016-.989-1.726v-50.422c0-3.323 2.7-6.027 6.019-6.027s6.019 2.704 6.019 6.027v50.423c0 .71-.377 1.367-.989 1.726-.315.182-.664.274-1.014.274zm-4.034-5.049h.031c.674 0 1.345.067 2.003.2v-47.574c0-1.118-.905-2.027-2.019-2.027s-2.019.909-2.019 2.027v47.574c.659-.133 1.33-.2 2.004-.2z" fill="#3762cc"/><path d="m122.47 8.675-83.761 33.601c-4.008 1.608-3.934 7.424.115 8.924l83.881 31.083c2.103.779 4.408.779 6.512 0l83.906-31.092c4.04-1.497 4.114-7.3.114-8.905l-83.787-33.611c-2.243-.9-4.737-.9-6.98 0z" fill="#4671c6"/><path d="m125.96 84.866c-1.338 0-2.677-.235-3.951-.708l-83.881-31.084c-2.625-.973-4.346-3.433-4.384-6.267-.038-2.837 1.618-5.345 4.219-6.389l83.762-33.601c2.73-1.093 5.738-1.095 8.468 0l83.787 33.613c2.597 1.042 4.25 3.545 4.213 6.378-.038 2.83-1.756 5.287-4.377 6.258l-83.905 31.093c-1.274.472-2.613.707-3.951.707zm-2.745-74.335-83.762 33.601c-1.609.646-1.715 2.17-1.708 2.622.006.451.152 1.969 1.773 2.57l83.881 31.084c1.651.611 3.471.611 5.122 0l83.905-31.093c1.616-.6 1.762-2.111 1.768-2.561s-.099-1.97-1.702-2.612l-83.787-33.611c-1.769-.711-3.72-.71-5.49 0z" fill="#3762cc"/><path d="m177.378 54.032c-12.405-2.245-58.865-9.375-105.216-.02-1.839.371-3.033 1.3-3.033 2.314v.048 23.128.002c0 1.053 1.271 1.989 3.207 2.34 12.405 2.245 58.866 9.375 105.216.02 1.318-.266 3.033-1.017 3.033-2.362v-23.128-.002c0-1.053-1.272-1.99-3.207-2.34z" fill="#4671c6"/><path d="m127.167 88.565c-25.951 0-47.021-3.276-55.187-4.754-2.947-.533-4.851-2.225-4.851-4.308v-23.13c0-2.076 1.82-3.754 4.638-4.322 46.452-9.375 92.852-2.361 105.967.013 2.946.532 4.851 2.223 4.851 4.308v23.13c0 2.089-1.777 3.745-4.638 4.322-17.527 3.537-35.051 4.741-50.78 4.741zm-56.038-9.288c.179.147.661.435 1.563.599 12.939 2.341 58.713 9.262 104.464.026.73-.146 1.238-.414 1.429-.573v-22.73c-.179-.147-.66-.436-1.563-.599 0 0 0 0-.001 0-12.938-2.341-58.708-9.265-104.463-.026-.819.165-1.261.437-1.429.577zm107.53-22.606h.011z" fill="#3762cc"/><path d="m127.525 194.047c-24.128 0-44.885-15.881-51.057-38.826-.043.001-.086.001-.13.001-9.66 0-17.518-7.796-17.518-17.378 0-9.021 6.964-16.459 15.84-17.3v-2.825c0-2.445.182-4.952.541-7.45.089-.619.462-1.161 1.01-1.465s1.205-.332 1.777-.081c9.12 4.023 20.432 5.49 33.627 4.357 2.252-.193 6.747-.784 6.792-.79 11.652-1.478 28.579-7.48 38.406-16.098.542-.475 1.302-.62 1.978-.384.681.237 1.181.823 1.309 1.532 2.031 11.243 8.805 16.007 16.647 21.523.756.531 1.519 1.068 2.285 1.616 4.522.074 8.759 1.835 11.992 5.002 3.357 3.287 5.206 7.677 5.206 12.361 0 9.582-7.858 17.378-17.519 17.378-.043 0-.086 0-.129-.001-6.171 22.947-26.929 38.828-51.057 38.828zm-49.52-42.916c.918 0 1.731.631 1.945 1.542 5.18 22.005 24.743 37.374 47.575 37.374s42.395-15.369 47.575-37.374c.231-.981 1.151-1.627 2.157-1.531.51.054.985.08 1.454.08 7.454 0 13.519-6.001 13.519-13.378 0-3.6-1.422-6.975-4.005-9.504-2.62-2.566-6.082-3.972-9.793-3.858-.445-.018-.859-.124-1.211-.377-.932-.671-1.859-1.323-2.775-1.968-7.486-5.266-14.595-10.266-17.548-20.861-10.611 8.028-26.681 13.549-37.978 14.981-.178.023-4.621.607-6.962.809-12.712 1.088-23.831-.142-33.098-3.664-.132 1.452-.199 2.896-.199 4.317v4.762c0 .537-.216 1.051-.599 1.427-.382.377-.89.581-1.438.573-.084-.002-.167-.007-.25-.013-.001 0-.004 0-.006 0-7.487 0-13.547 6.001-13.547 13.376 0 7.377 6.064 13.378 13.518 13.378.469 0 .945-.026 1.456-.08.07-.007.14-.011.21-.011z" fill="#3762cc"/><path d="m133.06 221.14c-3.867 0-7.245 0-11.1 0l-2.82 7.995 7.354 11.753c.222.355.611.571 1.029.571.383 0 .735-.186.964-.488l7.397-11.827z" fill="#6bdddd"/><path d="m128.549 240.888c-.223.356-.613.572-1.033.571-.419 0-.807-.216-1.029-.571l-.712-1.138-26.528-42.393h-2.58c-19.068 0-34.526 15.458-34.526 34.526v16.117h130.726v-16.116c0-19.068-15.458-34.526-34.526-34.526h-2.58l-13.225 21.142z" fill="#4671c6"/><path d="m192.866 250h-130.725c-1.104 0-2-.896-2-2v-16.116c0-20.141 16.385-36.526 36.526-36.526h2.581c.689 0 1.33.354 1.695.939l26.575 42.468 26.547-42.468c.365-.584 1.006-.939 1.695-.939h2.58c20.141 0 36.526 16.386 36.526 36.526v16.116c0 1.104-.895 2-2 2zm-128.725-4h126.725v-14.116c0-17.936-14.591-32.526-32.526-32.526h-1.472l-26.623 42.591c0 .001 0 .001-.001.002-.592.945-1.61 1.509-2.725 1.509-.002 0-.005 0-.008 0-1.11 0-2.129-.564-2.72-1.51l-26.651-42.593h-1.473c-17.935 0-32.526 14.591-32.526 32.526zm64.408-5.111h.01z" fill="#3762cc"/><path d="m126.494 240.888-28.462-45.491c-.487-.779-1.442-1.125-2.315-.84l-16.911 5.514c-1.376.449-1.835 2.166-.865 3.241l40.289 44.688h18.59l40.291-44.688c.969-1.075.511-2.792-.865-3.241l-16.911-5.514c-.873-.285-1.828.062-2.316.841l-28.462 45.491c-.223.356-.613.572-1.033.571-.419-.001-.808-.217-1.03-.572z" fill="#f9a7a7"/><path d="m136.819 250h-18.589c-.566 0-1.106-.24-1.485-.661l-40.291-44.689c-.911-1.01-1.245-2.396-.894-3.71s1.332-2.35 2.624-2.771l16.912-5.514c1.747-.57 3.653.119 4.63 1.68l27.798 44.432 27.798-44.43c.977-1.562 2.882-2.251 4.632-1.682l16.91 5.514c1.293.422 2.274 1.459 2.625 2.772s.016 2.7-.895 3.71l-40.291 44.688c-.377.421-.917.661-1.484.661zm-17.699-4h16.81l39.695-44.027-16.911-5.515-28.462 45.491c-.593.946-1.611 1.51-2.726 1.51-.002 0-.005 0-.008 0-1.109 0-2.127-.563-2.719-1.508 0-.001 0-.001 0-.002l-28.462-45.492-16.911 5.515z" fill="#3762cc"/><path d="m127.51 199.711-8.751 15.027 3.201 6.402h11.1l3.208-6.39z" fill="#6bdddd"/><path d="m133.061 223.14h-11.101c-.757 0-1.45-.428-1.789-1.105l-3.201-6.401c-.301-.604-.279-1.318.061-1.901l8.751-15.027c.358-.615 1.017-.993 1.729-.993.712 0 1.37.378 1.728.993l8.758 15.039c.34.584.362 1.3.059 1.904l-3.207 6.39c-.34.674-1.032 1.101-1.788 1.101zm-9.865-4h8.63l2.168-4.319-6.484-11.135-6.479 11.125z" fill="#3762cc"/><path d="m127.526 243.459c-.003 0-.005 0-.008 0-1.109 0-2.127-.563-2.719-1.508l-7.354-11.756c-.323-.516-.394-1.151-.191-1.726l2.82-7.995c.282-.8 1.038-1.335 1.886-1.335h11.101c.848 0 1.604.535 1.886 1.335l2.823 8.005c.203.574.133 1.209-.19 1.726l-7.396 11.827c-.031.051-.065.101-.103.148-.608.801-1.563 1.279-2.555 1.279zm-6.18-14.568 6.17 9.861 6.161-9.851-2.031-5.762h-8.271z" fill="#3762cc"/></svg>