<svg height="512" viewBox="0 0 512 512" width="512" xmlns="http://www.w3.org/2000/svg"><g id="flat"><path d="m39.455 92.394 197.307-46.039a22.2 22.2 0 0 1 27.238 21.614v396.031h-220a20 20 0 0 1 -20-20v-332.129a20 20 0 0 1 15.455-19.477z" fill="#a83b32"/><path d="m464 232-5.633-39.43a16 16 0 0 0 -18.813-13.459l-279.554 52.889 304 8z" fill="#ea9d2d"/><path d="m160 232h322a6 6 0 0 1 6 6v188a6 6 0 0 1 -6 6h-322a0 0 0 0 1 0 0v-200a0 0 0 0 1 0 0z" fill="#fbb540"/><g fill="#ea9d2d"><path d="m320 232h16v24h-16z"/><path d="m320 272h16v16h-16z"/><path d="m320 304h16v16h-16z"/><path d="m320 400h16v32h-16z"/><path d="m320 336h16v16h-16z"/><path d="m320 368h16v16h-16z"/></g><path d="m408 264-1.255 1.255a50.343 50.343 0 0 0 -14.745 35.597v67.148l-16 16 8 16 24-8 24 8 8-16-16-16v-67.148a50.343 50.343 0 0 0 -14.745-35.6z" fill="#dbdbdb"/><path d="m392 304-32 32v16l32-16z" fill="#f55648"/><path d="m424 304 32 32v16l-32-16z" fill="#f55648"/><path d="m44 96h230a22 22 0 0 1 22 22v324a22 22 0 0 1 -22 22h-230a20 20 0 0 1 -20-20v-328a20 20 0 0 1 20-20z" fill="#c7463b"/><path d="m232 280a72.08 72.08 0 0 0 -66.424-71.763 8.184 8.184 0 0 0 -.9-.069c-1.547-.1-3.1-.168-4.675-.168s-3.12.068-4.664.167a8.051 8.051 0 0 0 -.919.071 71.977 71.977 0 0 0 -.081 143.518 7.953 7.953 0 0 0 1.058.081c1.525.1 3.057.163 4.606.163s3.082-.066 4.606-.163a7.953 7.953 0 0 0 1.058-.081 72.081 72.081 0 0 0 66.335-71.756zm-128 0a56.14 56.14 0 0 1 .581-8h19.619c-.237 2.656-.371 5.323-.371 8s.134 5.345.371 8h-19.619a56.14 56.14 0 0 1 -.581-8zm35.827 0a73.85 73.85 0 0 1 .438-8h39.471a73.362 73.362 0 0 1 0 16h-39.472a74.127 74.127 0 0 1 -.437-8zm20.173-55.538 10.837 19.514a73.56 73.56 0 0 1 5.314 12.024h-32.3a73.563 73.563 0 0 1 5.315-12.026zm56 55.538a56.14 56.14 0 0 1 -.581 8h-19.619c.237-2.656.371-5.325.371-8s-.134-5.343-.371-8h19.617a56.14 56.14 0 0 1 .583 8zm-39.849 24a73.563 73.563 0 0 1 -5.315 12.026l-10.836 19.512-10.837-19.514a73.56 73.56 0 0 1 -5.314-12.024zm3.981 28.242 4.691-8.446a89.586 89.586 0 0 0 7.406-17.453c.239-.778.454-1.561.671-2.343h17.686a56.316 56.316 0 0 1 -30.454 28.242zm30.454-76.242h-17.686c-.215-.776-.429-1.552-.665-2.323a89.618 89.618 0 0 0 -7.411-17.471l-4.692-8.448a56.316 56.316 0 0 1 30.454 28.242zm-70.718-28.242-4.691 8.446a89.586 89.586 0 0 0 -7.406 17.453c-.239.778-.454 1.561-.671 2.343h-17.686a56.316 56.316 0 0 1 30.454-28.242zm-30.454 76.242h17.686c.215.776.429 1.552.665 2.323a89.618 89.618 0 0 0 7.411 17.471l4.692 8.448a56.316 56.316 0 0 1 -30.454-28.242z" fill="#a83b32"/><path d="m240 400h-152a8 8 0 0 1 0-16h152a8 8 0 0 1 0 16z" fill="#a83b32"/><path d="m136 432h-24a8 8 0 0 1 0-16h24a8 8 0 0 1 0 16z" fill="#a83b32"/><path d="m216 432h-48a8 8 0 0 1 0-16h48a8 8 0 0 1 0 16z" fill="#a83b32"/></g></svg>